<svg width="32" height="32" viewBox="0 0 32 32" fill="none" xmlns="http://www.w3.org/2000/svg">
<path d="M11.2916 21.9847C10.9211 21.9847 10.6159 21.8648 10.3761 21.6251C10.1364 21.3853 10.0112 21.0854 10.0008 20.7252C9.98943 20.366 10.1037 20.0665 10.3434 19.8267L14.169 16.0012L10.3761 12.2084C10.1364 11.9686 10.0165 11.6634 10.0165 11.2928C10.0165 10.9223 10.1364 10.6171 10.3761 10.3773C10.6159 10.1375 10.9158 10.012 11.2759 10.0007C11.6352 9.99019 11.9347 10.1049 12.1745 10.3446L16 14.1702L19.7928 10.3773C20.0326 10.1375 20.3378 10.0177 20.7084 10.0177C21.0789 10.0177 21.3841 10.1375 21.6239 10.3773C21.8636 10.6171 21.9888 10.9166 21.9992 11.2758C22.0106 11.6359 21.8963 11.9359 21.6566 12.1757L17.831 16.0012L21.6239 19.794C21.8636 20.0338 21.9835 20.339 21.9835 20.7096C21.9835 21.0801 21.8636 21.3853 21.6239 21.6251C21.3841 21.8648 21.0846 21.99 20.7254 22.0004C20.3653 22.0118 20.0653 21.8975 19.8255 21.6578L16 17.8322L12.2072 21.6251C11.9674 21.8648 11.6622 21.9847 11.2916 21.9847Z" fill="#666666"/>
</svg>
