<svg width="20" height="14" viewBox="0 0 20 14" fill="none" xmlns="http://www.w3.org/2000/svg">
<path d="M3.9375 13.6666C3.0625 13.6666 2.34028 13.3611 1.77083 12.75C1.20139 12.1389 0.902778 11.4236 0.875 10.6041C0.875 10.493 0.881945 10.368 0.895833 10.2291C0.909722 10.0903 0.930556 9.96526 0.958333 9.85415L2.70833 2.85415C2.90278 2.11804 3.30222 1.51387 3.90667 1.04165C4.51056 0.569424 5.1875 0.333313 5.9375 0.333313H14.0625C14.8125 0.333313 15.4894 0.569424 16.0933 1.04165C16.6978 1.51387 17.0972 2.11804 17.2917 2.85415L19.0417 9.85415C19.0694 9.97915 19.0939 10.1075 19.115 10.2391C19.1356 10.3714 19.1458 10.5 19.1458 10.625C19.1458 11.4583 18.8508 12.1736 18.2608 12.7708C17.6703 13.368 16.9375 13.6666 16.0625 13.6666C15.4792 13.6666 14.9375 13.5139 14.4375 13.2083C13.9375 12.9028 13.5625 12.4861 13.3125 11.9583L12.7292 10.75C12.6597 10.5972 12.5592 10.4897 12.4275 10.4275C12.2953 10.3647 12.1458 10.3333 11.9792 10.3333H8.02083C7.85417 10.3333 7.705 10.3647 7.57333 10.4275C7.44111 10.4897 7.34028 10.5972 7.27083 10.75L6.6875 11.9583C6.4375 12.4861 6.0625 12.9028 5.5625 13.2083C5.0625 13.5139 4.52083 13.6666 3.9375 13.6666ZM4 12C4.23611 12 4.46194 11.9375 4.6775 11.8125C4.8925 11.6875 5.06944 11.493 5.20833 11.2291L5.79167 10.0416C6 9.61109 6.30194 9.27442 6.6975 9.03164C7.09361 8.78831 7.53472 8.66665 8.02083 8.66665H11.9792C12.4514 8.66665 12.8889 8.79165 13.2917 9.04165C13.6944 9.29165 14.0069 9.62498 14.2292 10.0416L14.8125 11.2291C14.9514 11.493 15.1286 11.6875 15.3442 11.8125C15.5592 11.9375 15.7847 12 16.0208 12C16.3819 12 16.7083 11.875 17 11.625C17.2917 11.375 17.4444 11.0486 17.4583 10.6458V10.4475C17.4583 10.3853 17.4444 10.3194 17.4167 10.25L15.6667 3.27081C15.5694 2.89581 15.375 2.59026 15.0833 2.35415C14.7917 2.11804 14.4514 1.99998 14.0625 1.99998H5.9375C5.54861 1.99998 5.205 2.11804 4.90667 2.35415C4.60778 2.59026 4.41667 2.89581 4.33333 3.27081L2.58333 10.25C2.55556 10.3333 2.54167 10.4583 2.54167 10.625C2.54167 11.0278 2.69444 11.3578 3 11.615C3.30556 11.8716 3.63889 12 4 12ZM11.25 6.16665C11.0139 6.16665 10.8161 6.08665 10.6567 5.92665C10.4967 5.7672 10.4167 5.56942 10.4167 5.33331C10.4167 5.0972 10.4967 4.89915 10.6567 4.73915C10.8161 4.5797 11.0139 4.49998 11.25 4.49998C11.4861 4.49998 11.6842 4.5797 11.8442 4.73915C12.0036 4.89915 12.0833 5.0972 12.0833 5.33331C12.0833 5.56942 12.0036 5.7672 11.8442 5.92665C11.6842 6.08665 11.4861 6.16665 11.25 6.16665ZM12.9167 4.49998C12.6806 4.49998 12.4828 4.41998 12.3233 4.25998C12.1633 4.10053 12.0833 3.90276 12.0833 3.66665C12.0833 3.43053 12.1633 3.23248 12.3233 3.07248C12.4828 2.91304 12.6806 2.83331 12.9167 2.83331C13.1528 2.83331 13.3506 2.91304 13.51 3.07248C13.67 3.23248 13.75 3.43053 13.75 3.66665C13.75 3.90276 13.67 4.10053 13.51 4.25998C13.3506 4.41998 13.1528 4.49998 12.9167 4.49998ZM12.9167 7.83331C12.6806 7.83331 12.4828 7.75331 12.3233 7.59331C12.1633 7.43387 12.0833 7.23609 12.0833 6.99998C12.0833 6.76387 12.1633 6.56581 12.3233 6.40581C12.4828 6.24637 12.6806 6.16665 12.9167 6.16665C13.1528 6.16665 13.3506 6.24637 13.51 6.40581C13.67 6.56581 13.75 6.76387 13.75 6.99998C13.75 7.23609 13.67 7.43387 13.51 7.59331C13.3506 7.75331 13.1528 7.83331 12.9167 7.83331ZM14.5833 6.16665C14.3472 6.16665 14.1494 6.08665 13.99 5.92665C13.83 5.7672 13.75 5.56942 13.75 5.33331C13.75 5.0972 13.83 4.89915 13.99 4.73915C14.1494 4.5797 14.3472 4.49998 14.5833 4.49998C14.8194 4.49998 15.0172 4.5797 15.1767 4.73915C15.3367 4.89915 15.4167 5.0972 15.4167 5.33331C15.4167 5.56942 15.3367 5.7672 15.1767 5.92665C15.0172 6.08665 14.8194 6.16665 14.5833 6.16665ZM7.08333 7.41665C6.91667 7.41665 6.77083 7.35415 6.64583 7.22915C6.52083 7.10415 6.45833 6.95831 6.45833 6.79165V5.95831H5.625C5.45833 5.95831 5.3125 5.89581 5.1875 5.77081C5.0625 5.64581 5 5.49998 5 5.33331C5 5.16665 5.0625 5.02081 5.1875 4.89581C5.3125 4.77081 5.45833 4.70831 5.625 4.70831H6.45833V3.87498C6.45833 3.70831 6.52083 3.56248 6.64583 3.43748C6.77083 3.31248 6.91667 3.24998 7.08333 3.24998C7.25 3.24998 7.39583 3.31248 7.52083 3.43748C7.64583 3.56248 7.70833 3.70831 7.70833 3.87498V4.70831H8.54167C8.70833 4.70831 8.85417 4.77081 8.97917 4.89581C9.10417 5.02081 9.16667 5.16665 9.16667 5.33331C9.16667 5.49998 9.10417 5.64581 8.97917 5.77081C8.85417 5.89581 8.70833 5.95831 8.54167 5.95831H7.70833V6.79165C7.70833 6.95831 7.64583 7.10415 7.52083 7.22915C7.39583 7.35415 7.25 7.41665 7.08333 7.41665Z" fill="#58BFF5"/>
</svg>
