<svg width="32" height="32" viewBox="0 0 32 32" fill="none" xmlns="http://www.w3.org/2000/svg">
<path d="M9 23H10.4L19.025 14.375L17.625 12.975L9 21.6V23ZM23.3 12.925L19.05 8.725L20.45 7.325C20.8333 6.94167 21.3043 6.75 21.863 6.75C22.421 6.75 22.8917 6.94167 23.275 7.325L24.675 8.725C25.0583 9.10833 25.2583 9.571 25.275 10.113C25.2917 10.6543 25.1083 11.1167 24.725 11.5L23.3 12.925ZM8 25C7.71667 25 7.47933 24.904 7.288 24.712C7.096 24.5207 7 24.2833 7 24V21.175C7 21.0417 7.025 20.9127 7.075 20.788C7.125 20.6627 7.2 20.55 7.3 20.45L17.6 10.15L21.85 14.4L11.55 24.7C11.45 24.8 11.3377 24.875 11.213 24.925C11.0877 24.975 10.9583 25 10.825 25H8ZM18.325 13.675L17.625 12.975L19.025 14.375L18.325 13.675Z" fill="#666666"/>
</svg>
