<svg width="18" height="18" viewBox="0 0 18 18" fill="none" xmlns="http://www.w3.org/2000/svg">
<path d="M9.00008 4.83335C9.45841 4.83335 9.83341 5.20835 9.83341 5.66669V9.00002C9.83341 9.45835 9.45841 9.83335 9.00008 9.83335C8.54175 9.83335 8.16675 9.45835 8.16675 9.00002V5.66669C8.16675 5.20835 8.54175 4.83335 9.00008 4.83335ZM8.99175 0.666687C4.39175 0.666687 0.666748 4.40002 0.666748 9.00002C0.666748 13.6 4.39175 17.3334 8.99175 17.3334C13.6001 17.3334 17.3334 13.6 17.3334 9.00002C17.3334 4.40002 13.6001 0.666687 8.99175 0.666687ZM9.00008 15.6667C5.31675 15.6667 2.33341 12.6834 2.33341 9.00002C2.33341 5.31669 5.31675 2.33335 9.00008 2.33335C12.6834 2.33335 15.6667 5.31669 15.6667 9.00002C15.6667 12.6834 12.6834 15.6667 9.00008 15.6667ZM9.83341 12.3334C9.83341 12.7936 9.46032 13.1667 9.00008 13.1667C8.53984 13.1667 8.16675 12.7936 8.16675 12.3334C8.16675 11.8731 8.53984 11.5 9.00008 11.5C9.46032 11.5 9.83341 11.8731 9.83341 12.3334Z" fill="#58BFF5"/>
</svg>
