<svg width="20" height="20" viewBox="0 0 20 20" fill="none" xmlns="http://www.w3.org/2000/svg">
<path d="M5.58342 16.0834L3.29175 15.5834C3.08341 15.5417 2.91675 15.4339 2.79175 15.26C2.66675 15.0867 2.61814 14.8959 2.64591 14.6875L2.87508 12.3334L1.31258 10.5417C1.17369 10.3889 1.10425 10.2084 1.10425 10C1.10425 9.7917 1.17369 9.61114 1.31258 9.45836L2.87508 7.6667L2.64591 5.31253C2.61814 5.1042 2.66675 4.91336 2.79175 4.74003C2.91675 4.56614 3.08341 4.45836 3.29175 4.4167L5.58342 3.9167L6.79175 1.87503C6.90286 1.69447 7.05564 1.57642 7.25008 1.52086C7.44453 1.46531 7.63897 1.47225 7.83342 1.5417L10.0001 2.45836L12.1667 1.5417C12.3612 1.47225 12.5556 1.46531 12.7501 1.52086C12.9445 1.57642 13.0973 1.69447 13.2084 1.87503L14.4167 3.9167L16.7084 4.4167C16.9167 4.45836 17.0834 4.56614 17.2084 4.74003C17.3334 4.91336 17.382 5.1042 17.3542 5.31253L17.1251 7.6667L18.6876 9.45836C18.8265 9.61114 18.8959 9.7917 18.8959 10C18.8959 10.2084 18.8265 10.3889 18.6876 10.5417L17.1251 12.3334L17.3542 14.6875C17.382 14.8959 17.3334 15.0867 17.2084 15.26C17.0834 15.4339 16.9167 15.5417 16.7084 15.5834L14.4167 16.0834L13.2084 18.125C13.0973 18.3056 12.9445 18.4236 12.7501 18.4792C12.5556 18.5348 12.3612 18.5278 12.1667 18.4584L10.0001 17.5417L7.83342 18.4584C7.63897 18.5278 7.44453 18.5348 7.25008 18.4792C7.05564 18.4236 6.90286 18.3056 6.79175 18.125L5.58342 16.0834ZM8.54175 12.375C8.69453 12.5278 8.88897 12.6042 9.12508 12.6042C9.36119 12.6042 9.55564 12.5278 9.70842 12.375L13.2501 8.83336C13.4167 8.6667 13.5001 8.46864 13.5001 8.2392C13.5001 8.01031 13.4167 7.81253 13.2501 7.64586C13.0834 7.4792 12.8856 7.39586 12.6567 7.39586C12.4273 7.39586 12.2292 7.4792 12.0626 7.64586L9.12508 10.5834L7.91675 9.39586C7.75008 9.24308 7.5523 9.17003 7.32342 9.1767C7.09397 9.18392 6.90286 9.26392 6.75008 9.4167C6.5973 9.56947 6.52092 9.76392 6.52092 10C6.52092 10.2361 6.5973 10.4306 6.75008 10.5834L8.54175 12.375ZM7.87508 16.625L10.0001 15.7084L12.1667 16.625L13.3334 14.625L15.6251 14.0834L15.4167 11.75L16.9584 10L15.4167 8.20836L15.6251 5.87503L13.3334 5.37503L12.1251 3.37503L10.0001 4.2917L7.83342 3.37503L6.66675 5.37503L4.37508 5.87503L4.58342 8.20836L3.04175 10L4.58342 11.75L4.37508 14.125L6.66675 14.625L7.87508 16.625Z" fill="#58BFF5"/>
</svg>
