<svg width="30" height="29" viewBox="0 0 30 29" fill="none" xmlns="http://www.w3.org/2000/svg">
<path d="M27.7499 10.0667L19.6832 9.36667L16.5332 1.95C15.9665 0.6 14.0332 0.6 13.4665 1.95L10.3165 9.38333L2.26654 10.0667C0.799877 10.1833 0.199877 12.0167 1.31654 12.9833L7.43321 18.2833L5.59988 26.15C5.26654 27.5833 6.81654 28.7167 8.08321 27.95L14.9999 23.7833L21.9165 27.9667C23.1832 28.7333 24.7332 27.6 24.3999 26.1667L22.5665 18.2833L28.6832 12.9833C29.7999 12.0167 29.2165 10.1833 27.7499 10.0667ZM15.2067 20.7917C15.0795 20.7148 14.9202 20.7148 14.793 20.7916L9.54527 23.9597C9.24229 24.1427 8.86851 23.8709 8.94903 23.5263L10.345 17.5517C10.3787 17.4071 10.3297 17.2558 10.2176 17.1585L5.58012 13.1357C5.31321 12.9041 5.45564 12.4656 5.80766 12.435L11.9263 11.9042C12.0741 11.8914 12.2026 11.7978 12.2603 11.6611L14.6319 6.03887C14.7694 5.71304 15.231 5.71276 15.3689 6.03842L17.756 11.6782C17.8138 11.8147 17.9422 11.908 18.0898 11.9208L24.2088 12.4517C24.5608 12.4822 24.7032 12.9208 24.4363 13.1523L19.7989 17.1752C19.6867 17.2725 19.6377 17.4238 19.6715 17.5683L21.0672 23.542C21.1477 23.8867 20.7736 24.1585 20.4707 23.9753L15.2067 20.7917Z" fill="#58BFF5"/>
</svg>
