<svg width="35" height="30" viewBox="0 0 35 30" fill="none" xmlns="http://www.w3.org/2000/svg">
<path d="M20.1002 -4.24739e-05C11.6169 -0.233376 4.66688 6.58329 4.66688 15H1.68355C0.933547 15 0.56688 15.9 1.10021 16.4166L5.75021 21.0833C6.08355 21.4166 6.60021 21.4166 6.93355 21.0833L11.5835 16.4166C12.1002 15.9 11.7335 15 10.9835 15H8.00021C8.00021 8.49996 13.3002 3.24996 19.8335 3.33329C26.0335 3.41662 31.2502 8.63329 31.3335 14.8333C31.4169 21.35 26.1669 26.6666 19.6669 26.6666C16.9835 26.6666 14.5002 25.75 12.5335 24.2C11.8669 23.6833 10.9335 23.7333 10.3335 24.3333C9.63355 25.0333 9.68355 26.2166 10.4669 26.8166C13.0002 28.8166 16.1835 30 19.6669 30C28.0835 30 34.9002 23.05 34.6669 14.5666C34.4502 6.74996 27.9169 0.216624 20.1002 -4.24739e-05ZM19.2502 8.33329C18.5669 8.33329 18.0002 8.89996 18.0002 9.58329V15.7166C18.0002 16.3 18.3169 16.85 18.8169 17.15L24.0169 20.2333C24.6169 20.5833 25.3835 20.3833 25.7335 19.8C26.0835 19.2 25.8835 18.4333 25.3002 18.0833L20.5002 15.2333V9.56662C20.5002 8.89996 19.9335 8.33329 19.2502 8.33329Z" fill="#58BFF5"/>
</svg>
