<svg width="39" height="20" viewBox="0 0 39 20" fill="none" xmlns="http://www.w3.org/2000/svg">
<path d="M10.6665 13.3333C9.74984 13.3333 8.96539 13.0067 8.31317 12.3533C7.65984 11.7011 7.33317 10.9167 7.33317 10C7.33317 9.08333 7.65984 8.29833 8.31317 7.645C8.96539 6.99278 9.74984 6.66667 10.6665 6.66667C11.5832 6.66667 12.3676 6.99278 13.0198 7.645C13.6732 8.29833 13.9998 9.08333 13.9998 10C13.9998 10.9167 13.6732 11.7011 13.0198 12.3533C12.3676 13.0067 11.5832 13.3333 10.6665 13.3333ZM10.6665 20C7.88873 20 5.52762 19.0278 3.58317 17.0833C1.63873 15.1389 0.666504 12.7778 0.666504 10C0.666504 7.22222 1.63873 4.86111 3.58317 2.91667C5.52762 0.972222 7.88873 0 10.6665 0C12.5276 0 14.2154 0.458333 15.7298 1.375C17.2432 2.29167 18.4443 3.5 19.3332 5H33.2915C33.5137 5 33.7293 5.04167 33.9382 5.125C34.1459 5.20833 34.3332 5.33333 34.4998 5.5L37.8332 8.83333C37.9998 9 38.1182 9.18056 38.1882 9.375C38.2571 9.56944 38.2915 9.77778 38.2915 10C38.2915 10.2222 38.2571 10.4306 38.1882 10.625C38.1182 10.8194 37.9998 11 37.8332 11.1667L32.5415 16.4583C32.4026 16.5972 32.2359 16.7083 32.0415 16.7917C31.8471 16.875 31.6526 16.9306 31.4582 16.9583C31.2637 16.9861 31.0693 16.9722 30.8748 16.9167C30.6804 16.8611 30.4998 16.7639 30.3332 16.625L28.1665 15L25.7915 16.7917C25.6526 16.9028 25.4998 16.9861 25.3332 17.0417C25.1665 17.0972 24.9998 17.125 24.8332 17.125C24.6665 17.125 24.4932 17.0972 24.3132 17.0417C24.1321 16.9861 23.9721 16.9028 23.8332 16.7917L21.2915 15H19.3332C18.4443 16.5 17.2432 17.7083 15.7298 18.625C14.2154 19.5417 12.5276 20 10.6665 20ZM10.6665 16.6667C12.2221 16.6667 13.5904 16.1944 14.7715 15.25C15.9515 14.3056 16.7359 13.1111 17.1248 11.6667H22.3332L24.7498 13.375L28.1665 10.8333L31.1248 13.125L34.2498 10L32.5832 8.33333H17.1248C16.7359 6.88889 15.9515 5.69445 14.7715 4.75C13.5904 3.80556 12.2221 3.33333 10.6665 3.33333C8.83317 3.33333 7.26373 3.98611 5.95817 5.29167C4.65262 6.59722 3.99984 8.16667 3.99984 10C3.99984 11.8333 4.65262 13.4028 5.95817 14.7083C7.26373 16.0139 8.83317 16.6667 10.6665 16.6667Z" fill="#58BFF5"/>
</svg>
