<svg width="39" height="20" viewBox="0 0 39 20" fill="none" xmlns="http://www.w3.org/2000/svg">
<path d="M10.667 13.3333C9.75033 13.3333 8.96588 13.0067 8.31366 12.3533C7.66033 11.7011 7.33366 10.9167 7.33366 10C7.33366 9.08333 7.66033 8.29833 8.31366 7.645C8.96588 6.99278 9.75033 6.66667 10.667 6.66667C11.5837 6.66667 12.3681 6.99278 13.0203 7.645C13.6737 8.29833 14.0003 9.08333 14.0003 10C14.0003 10.9167 13.6737 11.7011 13.0203 12.3533C12.3681 13.0067 11.5837 13.3333 10.667 13.3333ZM10.667 20C7.88921 20 5.5281 19.0278 3.58366 17.0833C1.63921 15.1389 0.666992 12.7778 0.666992 10C0.666992 7.22222 1.63921 4.86111 3.58366 2.91667C5.5281 0.972222 7.88921 0 10.667 0C12.5281 0 14.2159 0.458333 15.7303 1.375C17.2437 2.29167 18.4448 3.5 19.3337 5H33.292C33.5142 5 33.7298 5.04167 33.9387 5.125C34.1464 5.20833 34.3337 5.33333 34.5003 5.5L37.8337 8.83333C38.0003 9 38.1187 9.18056 38.1887 9.375C38.2575 9.56944 38.292 9.77778 38.292 10C38.292 10.2222 38.2575 10.4306 38.1887 10.625C38.1187 10.8194 38.0003 11 37.8337 11.1667L32.542 16.4583C32.4031 16.5972 32.2364 16.7083 32.042 16.7917C31.8475 16.875 31.6531 16.9306 31.4587 16.9583C31.2642 16.9861 31.0698 16.9722 30.8753 16.9167C30.6809 16.8611 30.5003 16.7639 30.3337 16.625L28.167 15L25.792 16.7917C25.6531 16.9028 25.5003 16.9861 25.3337 17.0417C25.167 17.0972 25.0003 17.125 24.8337 17.125C24.667 17.125 24.4937 17.0972 24.3137 17.0417C24.1325 16.9861 23.9725 16.9028 23.8337 16.7917L21.292 15H19.3337C18.4448 16.5 17.2437 17.7083 15.7303 18.625C14.2159 19.5417 12.5281 20 10.667 20ZM10.667 16.6667C12.2225 16.6667 13.5909 16.1944 14.772 15.25C15.952 14.3056 16.7364 13.1111 17.1253 11.6667H22.3337L24.7503 13.375L28.167 10.8333L31.1253 13.125L34.2503 10L32.5837 8.33333H17.1253C16.7364 6.88889 15.952 5.69445 14.772 4.75C13.5909 3.80556 12.2225 3.33333 10.667 3.33333C8.83366 3.33333 7.26421 3.98611 5.95866 5.29167C4.6531 6.59722 4.00033 8.16667 4.00033 10C4.00033 11.8333 4.6531 13.4028 5.95866 14.7083C7.26421 16.0139 8.83366 16.6667 10.667 16.6667Z" fill="#666666"/>
</svg>
