<svg width="32" height="16" viewBox="0 0 32 16" fill="none" xmlns="http://www.w3.org/2000/svg">
<path d="M24 0H19.2C18.32 0 17.6 0.72 17.6 1.6C17.6 2.48 18.32 3.2 19.2 3.2H24C26.64 3.2 28.8 5.36 28.8 8C28.8 10.64 26.64 12.8 24 12.8H19.2C18.32 12.8 17.6 13.52 17.6 14.4C17.6 15.28 18.32 16 19.2 16H24C28.416 16 32 12.416 32 8C32 3.584 28.416 0 24 0ZM9.6 8C9.6 8.88 10.32 9.6 11.2 9.6H20.8C21.68 9.6 22.4 8.88 22.4 8C22.4 7.12 21.68 6.4 20.8 6.4H11.2C10.32 6.4 9.6 7.12 9.6 8ZM12.8 12.8H8C5.36 12.8 3.2 10.64 3.2 8C3.2 5.36 5.36 3.2 8 3.2H12.8C13.68 3.2 14.4 2.48 14.4 1.6C14.4 0.72 13.68 0 12.8 0H8C3.584 0 0 3.584 0 8C0 12.416 3.584 16 8 16H12.8C13.68 16 14.4 15.28 14.4 14.4C14.4 13.52 13.68 12.8 12.8 12.8Z" fill="#58BFF5"/>
</svg>
