<svg width="32" height="32" viewBox="0 0 32 32" fill="none" xmlns="http://www.w3.org/2000/svg">
<path fill-rule="evenodd" clip-rule="evenodd" d="M5.5567 6C4.85361 6 4.25172 6.24103 3.75103 6.72308C3.25034 7.20513 3 7.78461 3 8.46154V23.5385C3 24.2154 3.25034 24.7949 3.75103 25.2769C4.25172 25.759 4.85361 26 5.5567 26L26.4433 26C27.1464 26 27.7483 25.759 28.249 25.2769C28.7497 24.7949 29 24.2154 29 23.5385V8.46154C29 7.78461 28.7497 7.20513 28.249 6.72308C27.7483 6.24102 27.1464 6 26.4433 6L5.5567 6ZM6.85 23.5C6.15964 23.5 5.6 22.9404 5.6 22.25V9.75C5.6 9.05964 6.15964 8.5 6.85 8.5H20.3334L20.3334 23.5H6.85ZM25.15 23.5C25.8404 23.5 26.4 22.9404 26.4 22.25V9.77741C26.4 9.09139 25.8471 8.53355 25.1611 8.52746L22.0667 8.5V23.5H25.15Z" fill="#666666"/>
<path d="M24.8708 13.7351C25.0557 13.5578 25.1482 13.3385 25.1482 13.0769C25.1482 12.8154 25.0557 12.5963 24.8708 12.4197C24.6866 12.2425 24.4581 12.1538 24.1852 12.1538C23.9124 12.1538 23.6835 12.2425 23.4986 12.4197C23.3144 12.5963 23.2223 12.8154 23.2223 13.0769C23.2223 13.3385 23.3144 13.5578 23.4986 13.7351C23.6835 13.9117 23.9124 14 24.1852 14C24.4581 14 24.6866 13.9117 24.8708 13.7351Z" fill="#666666"/>
<path d="M24.8708 10.9658C25.0557 10.7886 25.1482 10.5692 25.1482 10.3077C25.1482 10.0462 25.0557 9.82677 24.8708 9.64954C24.6866 9.47293 24.4581 9.38461 24.1852 9.38461C23.9124 9.38461 23.6835 9.47293 23.4986 9.64954C23.3144 9.82677 23.2223 10.0462 23.2223 10.3077C23.2223 10.5692 23.3144 10.7886 23.4986 10.9658C23.6835 11.1425 23.9124 11.2308 24.1852 11.2308C24.4581 11.2308 24.6866 11.1425 24.8708 10.9658Z" fill="#666666"/>
<path d="M24.8708 16.5043C25.0557 16.3271 25.1482 16.1077 25.1482 15.8461C25.1482 15.5846 25.0557 15.3655 24.8708 15.1889C24.6866 15.0117 24.4581 14.9231 24.1852 14.9231C23.9124 14.9231 23.6835 15.0117 23.4986 15.1889C23.3144 15.3655 23.2223 15.5846 23.2223 15.8461C23.2223 16.1077 23.3144 16.3271 23.4986 16.5043C23.6835 16.6809 23.9124 16.7692 24.1852 16.7692C24.4581 16.7692 24.6866 16.6809 24.8708 16.5043Z" fill="#666666"/>
</svg>
