<svg width="32" height="32" viewBox="0 0 32 32" fill="none" xmlns="http://www.w3.org/2000/svg">
<path fill-rule="evenodd" clip-rule="evenodd" d="M26.4433 6C27.1464 6 27.7483 6.24103 28.249 6.72308C28.7497 7.20513 29 7.78461 29 8.46154V23.5385C29 24.2154 28.7497 24.7949 28.249 25.2769C27.7483 25.759 27.1464 26 26.4433 26L5.5567 26C4.85361 26 4.25171 25.759 3.75103 25.2769C3.25034 24.7949 3 24.2154 3 23.5385V8.46154C3 7.78461 3.25034 7.20513 3.75103 6.72308C4.25171 6.24102 4.85361 6 5.5567 6L26.4433 6ZM25.15 23.5C25.8404 23.5 26.4 22.9404 26.4 22.25V9.75C26.4 9.05964 25.8404 8.5 25.15 8.5H11.6666L11.6666 23.5H25.15ZM6.85 23.5C6.15964 23.5 5.6 22.9404 5.6 22.25V9.77741C5.6 9.09139 6.1529 8.53355 6.83891 8.52746L9.93333 8.5V23.5H6.85Z" fill="#666666"/>
<path d="M7.12916 13.7351C6.94427 13.5578 6.85183 13.3385 6.85183 13.0769C6.85183 12.8154 6.94427 12.5963 7.12916 12.4197C7.31341 12.2425 7.54195 12.1538 7.81479 12.1538C8.08762 12.1538 8.31649 12.2425 8.50138 12.4197C8.68562 12.5963 8.77774 12.8154 8.77774 13.0769C8.77774 13.3385 8.68562 13.5578 8.50138 13.7351C8.31649 13.9117 8.08762 14 7.81479 14C7.54195 14 7.31341 13.9117 7.12916 13.7351Z" fill="#666666"/>
<path d="M7.12916 10.9658C6.94427 10.7886 6.85183 10.5692 6.85183 10.3077C6.85183 10.0462 6.94427 9.82677 7.12916 9.64954C7.31341 9.47293 7.54195 9.38461 7.81479 9.38461C8.08762 9.38461 8.31649 9.47293 8.50138 9.64954C8.68562 9.82677 8.77774 10.0462 8.77774 10.3077C8.77774 10.5692 8.68562 10.7886 8.50138 10.9658C8.31649 11.1425 8.08762 11.2308 7.81479 11.2308C7.54195 11.2308 7.31341 11.1425 7.12916 10.9658Z" fill="#666666"/>
<path d="M7.12916 16.5043C6.94427 16.3271 6.85183 16.1077 6.85183 15.8461C6.85183 15.5846 6.94427 15.3655 7.12916 15.1889C7.31341 15.0117 7.54195 14.9231 7.81479 14.9231C8.08762 14.9231 8.31649 15.0117 8.50138 15.1889C8.68562 15.3655 8.77774 15.5846 8.77774 15.8461C8.77774 16.1077 8.68562 16.3271 8.50138 16.5043C8.31649 16.6809 8.08762 16.7692 7.81479 16.7692C7.54195 16.7692 7.31341 16.6809 7.12916 16.5043Z" fill="#666666"/>
</svg>
