<svg width="72" height="86" viewBox="0 0 72 86" fill="none" xmlns="http://www.w3.org/2000/svg">
<path fill-rule="evenodd" clip-rule="evenodd" d="M3.07174 83.4759C4.78462 85.1586 6.84475 86 9.25212 86H51.3918V85.2835C51.0047 85.3005 50.6175 85.3072 50.2304 85.3072C43.0584 85.3072 32.8195 82.2541 28.3659 77.4H9.25212V8.6H39.8914V25.8C39.8914 27.0183 40.3116 28.0389 41.152 28.8616C41.9894 29.6872 43.0283 30.1 44.2684 30.1H60.498V41.3596C61.992 42.384 63.2749 43.6802 64.498 45H71.498V29.3475C71.498 28.2008 71.2792 27.1072 70.8415 26.0666C70.4038 25.0289 69.7837 24.1158 68.9812 23.3275L46.7852 2.4725C45.9827 1.68417 45.0534 1.075 43.997 0.645C42.9378 0.215 41.8246 0 40.6574 0H9.25212C6.84475 0 4.78462 0.841366 3.07174 2.5241C1.35595 4.2097 0.498047 6.235 0.498047 8.6V77.4C0.498047 79.765 1.35595 81.7903 3.07174 83.4759Z" fill="#292929"/>
<path d="M48.846 74.9535C42.043 74.6384 36.6305 69.1339 36.6305 62.3689C36.6305 55.4149 42.3853 49.7634 49.4664 49.7634C56.355 49.7634 61.96 55.0787 62.2809 61.7597L57.7884 60.4361C56.9112 56.7174 53.5097 53.9652 49.4664 53.9652C44.7385 53.9652 40.9091 57.7259 40.9091 62.3689C40.9091 66.3397 43.7117 69.6802 47.4982 70.5416L48.846 74.9535ZM70.8596 62.3689C70.8596 62.9992 70.8382 63.6295 70.774 64.2598L66.5596 63.0202C66.5809 62.8101 66.5809 62.579 66.5809 62.3689C66.5809 53.0828 58.9222 45.5615 49.4664 45.5615C40.0107 45.5615 32.3519 53.0828 32.3519 62.3689C32.3519 71.6551 40.0107 79.1764 49.4664 79.1764C49.6803 79.1764 49.9157 79.1764 50.1296 79.1554L51.3918 83.2942C50.75 83.3573 50.1082 83.3783 49.4664 83.3783C37.6574 83.3783 28.0732 73.9661 28.0732 62.3689C28.0732 50.7718 37.6574 41.3596 49.4664 41.3596C61.2754 41.3596 70.8596 50.7718 70.8596 62.3689ZM62.7943 71.3189L67.6506 69.7222C68.6347 69.4071 68.6133 68.0205 67.6292 67.7263L51.3704 62.9362C50.5575 62.7051 49.7873 63.4404 50.044 64.2388L54.9217 80.2059C55.2212 81.1933 56.6331 81.2143 56.954 80.2269L58.5799 75.4578L66.9446 83.6724C67.3725 84.0926 68.0357 84.0926 68.4635 83.6724L71.1805 81.0042C71.6083 80.584 71.6083 79.9327 71.1805 79.5126L62.7943 71.3189Z" fill="#292929"/>
</svg>
