<svg width="32" height="32" viewBox="0 0 32 32" fill="none" xmlns="http://www.w3.org/2000/svg">
<path d="M18.6667 12C17.9303 12 17.3333 11.403 17.3333 10.6667C17.3333 9.93029 17.9303 9.33333 18.6667 9.33333H21.3333V5.33333C21.3333 4.59695 21.9303 4 22.6667 4C23.403 4 24 4.59695 24 5.33333V9.33333H26.6667C27.403 9.33333 28 9.93029 28 10.6667C28 11.403 27.403 12 26.6667 12H18.6667ZM22.6667 28C21.9303 28 21.3333 27.403 21.3333 26.6667V15.7333C21.3333 14.997 21.9303 14.4 22.6667 14.4C23.403 14.4 24 14.997 24 15.7333V26.6667C24 27.403 23.403 28 22.6667 28ZM9.33333 28C8.59695 28 8 27.403 8 26.6667V22.6667H5.33333C4.59695 22.6667 4 22.0697 4 21.3333C4 20.597 4.59695 20 5.33333 20H13.3333C14.0697 20 14.6667 20.597 14.6667 21.3333C14.6667 22.0697 14.0697 22.6667 13.3333 22.6667H10.6667V26.6667C10.6667 27.403 10.0697 28 9.33333 28ZM9.33333 17.6C8.59695 17.6 8 17.003 8 16.2667V5.33333C8 4.59695 8.59695 4 9.33333 4C10.0697 4 10.6667 4.59695 10.6667 5.33333V16.2667C10.6667 17.003 10.0697 17.6 9.33333 17.6Z" fill="#666666"/>
</svg>
