<svg width="300" height="300" viewBox="0 0 300 300" fill="none" xmlns="http://www.w3.org/2000/svg">
  <path d="M150 30C150 30 60 70 60 100V180C60 210 90 240 150 270C210 240 240 210 240 180V100C240 70 150 30 150 30Z" fill="#0A1520"/>
  <path d="M150 30C150 30 60 70 60 100V180C60 210 90 240 150 270V30Z" fill="#3B9BFF"/>
  <path d="M150 30C150 30 240 70 240 100V180C240 210 210 240 150 270V30Z" fill="#1A2A3A"/>
  <path d="M190 110C190 110 170 100 150 100C130 100 110 110 110 110V130C110 130 110 170 150 190C190 170 190 130 190 130V110Z" fill="#D1D5DB"/>
  <path d="M150 100C130 100 110 110 110 110V130C110 130 110 170 150 190V100Z" fill="#F3F4F6"/>
  <path d="M150 100C170 100 190 110 190 110V130C190 130 190 170 150 190V100Z" fill="#D1D5DB"/>
</svg>
