<svg width="400" height="100" viewBox="0 0 400 100" fill="none" xmlns="http://www.w3.org/2000/svg">
  <path d="M35.5 75C28.5 75 22.8333 73.1667 18.5 69.5C14.1667 65.8333 11.6667 60.8333 11 54.5H25C25.3333 57.1667 26.5 59.3333 28.5 61C30.5 62.6667 32.8333 63.5 35.5 63.5C38.1667 63.5 40.3333 62.8333 42 61.5C43.6667 60.1667 44.5 58.3333 44.5 56C44.5 54 43.8333 52.5 42.5 51.5C41.1667 50.5 39.5 49.6667 37.5 49C35.5 48.3333 32.6667 47.5 29 46.5C24 45.1667 20 43.3333 17 41C14 38.6667 12.5 35.1667 12.5 30.5C12.5 27.1667 13.5 24.1667 15.5 21.5C17.5 18.8333 20.1667 16.8333 23.5 15.5C26.8333 14.1667 30.5 13.5 34.5 13.5C40.8333 13.5 46 15.1667 50 18.5C54 21.8333 56.3333 26.5 57 32.5H42.5C42.1667 30.1667 41 28.3333 39 27C37 25.6667 34.6667 25 32 25C29.6667 25 27.8333 25.6667 26.5 27C25.1667 28.3333 24.5 30.1667 24.5 32.5C24.5 34.5 25.1667 36 26.5 37C27.8333 38 29.5 38.8333 31.5 39.5C33.5 40.1667 36.3333 41 40 42C45 43.3333 49 45.1667 52 47.5C55 49.8333 56.5 53.3333 56.5 58C56.5 61 55.6667 63.8333 54 66.5C52.3333 69.1667 49.8333 71.3333 46.5 73C43.1667 74.3333 39.5 75 35.5 75Z" fill="white"/>
  <path d="M87 74L65 14H79L93.5 58L108 14H122L100 74H87Z" fill="white"/>
  <path d="M147 74C142.333 74 138.333 72.8333 135 70.5C131.667 68.1667 129.167 64.8333 127.5 60.5C125.833 56.1667 125 51 125 45C125 39 125.833 33.8333 127.5 29.5C129.167 25.1667 131.667 21.8333 135 19.5C138.333 17.1667 142.333 16 147 16C151.667 16 155.667 17.1667 159 19.5C162.333 21.8333 164.833 25.1667 166.5 29.5C168.167 33.8333 169 39 169 45C169 51 168.167 56.1667 166.5 60.5C164.833 64.8333 162.333 68.1667 159 70.5C155.667 72.8333 151.667 74 147 74ZM147 62C150.333 62 152.833 60.5 154.5 57.5C156.167 54.5 157 50.3333 157 45C157 39.6667 156.167 35.5 154.5 32.5C152.833 29.5 150.333 28 147 28C143.667 28 141.167 29.5 139.5 32.5C137.833 35.5 137 39.6667 137 45C137 50.3333 137.833 54.5 139.5 57.5C141.167 60.5 143.667 62 147 62Z" fill="white"/>
  <path d="M173 74V16H185V25.5C186.333 22.1667 188.333 19.6667 191 18C193.667 16.3333 196.667 15.5 200 15.5C204.667 15.5 208.5 17.1667 211.5 20.5C214.5 23.8333 216 28.6667 216 35V74H204V37.5C204 33.8333 203.167 31 201.5 29C199.833 27 197.5 26 194.5 26C191.5 26 189 27 187 29C185 31 184 33.8333 184 37.5V74H173Z" fill="white"/>
  <path d="M222 74V16H234V74H222ZM228 10C225.667 10 223.667 9.33333 222 8C220.333 6.66667 219.5 5 219.5 3C219.5 1 220.333 -0.666667 222 -2C223.667 -3.33333 225.667 -4 228 -4C230.333 -4 232.333 -3.33333 234 -2C235.667 -0.666667 236.5 1 236.5 3C236.5 5 235.667 6.66667 234 8C232.333 9.33333 230.333 10 228 10Z" fill="white"/>
  <path d="M267 74C262.333 74 258.333 72.8333 255 70.5C251.667 68.1667 249.167 64.8333 247.5 60.5C245.833 56.1667 245 51 245 45C245 39 245.833 33.8333 247.5 29.5C249.167 25.1667 251.667 21.8333 255 19.5C258.333 17.1667 262.333 16 267 16C271.667 16 275.667 17.1667 279 19.5C282.333 21.8333 284.833 25.1667 286.5 29.5C288.167 33.8333 289 39 289 45C289 51 288.167 56.1667 286.5 60.5C284.833 64.8333 282.333 68.1667 279 70.5C275.667 72.8333 271.667 74 267 74ZM267 62C270.333 62 272.833 60.5 274.5 57.5C276.167 54.5 277 50.3333 277 45C277 39.6667 276.167 35.5 274.5 32.5C272.833 29.5 270.333 28 267 28C263.667 28 261.167 29.5 259.5 32.5C257.833 35.5 257 39.6667 257 45C257 50.3333 257.833 54.5 259.5 57.5C261.167 60.5 263.667 62 267 62Z" fill="white"/>
  <path d="M293 74V16H305V25.5C306.333 22.1667 308.333 19.6667 311 18C313.667 16.3333 316.667 15.5 320 15.5C324.667 15.5 328.5 17.1667 331.5 20.5C334.5 23.8333 336 28.6667 336 35V74H324V37.5C324 33.8333 323.167 31 321.5 29C319.833 27 317.5 26 314.5 26C311.5 26 309 27 307 29C305 31 304 33.8333 304 37.5V74H293Z" fill="white"/>
  <path d="M342 74V16H354V74H342ZM348 10C345.667 10 343.667 9.33333 342 8C340.333 6.66667 339.5 5 339.5 3C339.5 1 340.333 -0.666667 342 -2C343.667 -3.33333 345.667 -4 348 -4C350.333 -4 352.333 -3.33333 354 -2C355.667 -0.666667 356.5 1 356.5 3C356.5 5 355.667 6.66667 354 8C352.333 9.33333 350.333 10 348 10Z" fill="white"/>
  <path d="M389 74V64.5C387.667 67.8333 385.667 70.3333 383 72C380.333 73.6667 377.333 74.5 374 74.5C369.333 74.5 365.5 72.8333 362.5 69.5C359.5 66.1667 358 61.3333 358 55V16H370V52.5C370 56.1667 370.833 59 372.5 61C374.167 63 376.5 64 379.5 64C382.5 64 385 63 387 61C389 59 390 56.1667 390 52.5V16H401V74H389Z" fill="#3B9BFF"/>
</svg>
