<svg width="28" height="34" viewBox="0 0 28 34" fill="none" xmlns="http://www.w3.org/2000/svg">
<path d="M14.0003 22.834C14.6948 22.834 15.2848 22.5907 15.7703 22.104C16.257 21.6184 16.5003 21.0284 16.5003 20.334V18.6673H18.167C18.8614 18.6673 19.4514 18.424 19.937 17.9373C20.4237 17.4518 20.667 16.8618 20.667 16.1673C20.667 15.4729 20.4237 14.8829 19.937 14.3973C19.4514 13.9107 18.8614 13.6673 18.167 13.6673H16.5003V12.0007C16.5003 11.3062 16.257 10.7162 15.7703 10.2307C15.2848 9.74398 14.6948 9.50065 14.0003 9.50065C13.3059 9.50065 12.7159 9.74398 12.2303 10.2307C11.7437 10.7162 11.5003 11.3062 11.5003 12.0007V13.6673H9.83366C9.13921 13.6673 8.54921 13.9107 8.06366 14.3973C7.57699 14.8829 7.33366 15.4729 7.33366 16.1673C7.33366 16.8618 7.57699 17.4518 8.06366 17.9373C8.54921 18.424 9.13921 18.6673 9.83366 18.6673H11.5003V20.334C11.5003 21.0284 11.7437 21.6184 12.2303 22.104C12.7159 22.5907 13.3059 22.834 14.0003 22.834ZM14.0003 33.5423H13.5837C13.4448 33.5423 13.3198 33.5145 13.2087 33.459C9.56977 32.3201 6.56977 30.0629 4.20866 26.6873C1.84755 23.3129 0.666992 19.584 0.666992 15.5007V7.62565C0.666992 6.93121 0.868659 6.30621 1.27199 5.75065C1.67421 5.1951 2.19477 4.79232 2.83366 4.54232L12.8337 0.792318C13.2225 0.653429 13.6114 0.583984 14.0003 0.583984C14.3892 0.583984 14.7781 0.653429 15.167 0.792318L25.167 4.54232C25.8059 4.79232 26.327 5.1951 26.7303 5.75065C27.1325 6.30621 27.3337 6.93121 27.3337 7.62565V15.5007C27.3337 19.584 26.1531 23.3129 23.792 26.6873C21.4309 30.0629 18.4309 32.3201 14.792 33.459C14.6531 33.5145 14.3892 33.5423 14.0003 33.5423ZM14.0003 30.1673C16.8892 29.2507 19.2781 27.4173 21.167 24.6673C23.0559 21.9173 24.0003 18.8618 24.0003 15.5007V7.62565L14.0003 3.87565L4.00033 7.62565V15.5007C4.00033 18.8618 4.94477 21.9173 6.83366 24.6673C8.72255 27.4173 11.1114 29.2507 14.0003 30.1673Z" fill="#666666"/>
</svg>
