<svg width="14" height="18" viewBox="0 0 14 18" fill="none" xmlns="http://www.w3.org/2000/svg">
<path d="M6.99992 11.9167C7.34714 11.9167 7.64214 11.795 7.88492 11.5517C8.12825 11.3089 8.24992 11.0139 8.24992 10.6667V9.83335H9.08325C9.43047 9.83335 9.72548 9.71169 9.96825 9.46835C10.2116 9.22558 10.3333 8.93058 10.3333 8.58335C10.3333 8.23613 10.2116 7.94113 9.96825 7.69835C9.72548 7.45502 9.43047 7.33335 9.08325 7.33335H8.24992V6.50002C8.24992 6.1528 8.12825 5.8578 7.88492 5.61502C7.64214 5.37169 7.34714 5.25002 6.99992 5.25002C6.6527 5.25002 6.3577 5.37169 6.11492 5.61502C5.87159 5.8578 5.74992 6.1528 5.74992 6.50002V7.33335H4.91659C4.56936 7.33335 4.27436 7.45502 4.03159 7.69835C3.78825 7.94113 3.66659 8.23613 3.66659 8.58335C3.66659 8.93058 3.78825 9.22558 4.03159 9.46835C4.27436 9.71169 4.56936 9.83335 4.91659 9.83335H5.74992V10.6667C5.74992 11.0139 5.87159 11.3089 6.11492 11.5517C6.3577 11.795 6.6527 11.9167 6.99992 11.9167ZM6.99992 17.2709H6.79159C6.72214 17.2709 6.65964 17.257 6.60409 17.2292C4.78464 16.6597 3.28464 15.5311 2.10409 13.8434C0.92353 12.1561 0.333252 10.2917 0.333252 8.25002V4.31252C0.333252 3.9653 0.434085 3.6528 0.635752 3.37502C0.836863 3.09724 1.09714 2.89585 1.41659 2.77085L6.41659 0.895854C6.61103 0.826409 6.80547 0.791687 6.99992 0.791687C7.19436 0.791687 7.38881 0.826409 7.58325 0.895854L12.5833 2.77085C12.9027 2.89585 13.1633 3.09724 13.3649 3.37502C13.566 3.6528 13.6666 3.9653 13.6666 4.31252V8.25002C13.6666 10.2917 13.0763 12.1561 11.8958 13.8434C10.7152 15.5311 9.2152 16.6597 7.39575 17.2292C7.32631 17.257 7.19436 17.2709 6.99992 17.2709ZM6.99992 15.5834C8.44436 15.125 9.63881 14.2084 10.5833 12.8334C11.5277 11.4584 11.9999 9.93058 11.9999 8.25002V4.31252L6.99992 2.43752L1.99992 4.31252V8.25002C1.99992 9.93058 2.47214 11.4584 3.41659 12.8334C4.36103 14.2084 5.55547 15.125 6.99992 15.5834Z" fill="#58BFF5"/>
</svg>
