<svg width="30" height="28" viewBox="0 0 30 28" fill="none" xmlns="http://www.w3.org/2000/svg">
<path d="M7.53307 28C6.49604 28 5.61455 27.6449 4.88863 26.9348C4.1627 26.2246 3.79974 25.3623 3.79974 24.3478C3.79974 23.3333 4.1627 22.471 4.88863 21.7609C5.61455 21.0507 6.49604 20.6957 7.53307 20.6957C7.82344 20.6957 8.09307 20.7261 8.34196 20.787C8.59085 20.8478 8.82937 20.929 9.05752 21.0304L10.8308 18.8696C10.2501 18.2406 9.84566 17.5304 9.61752 16.7391C9.38937 15.9478 9.33752 15.1565 9.46196 14.3652L6.94196 13.5435C6.58937 14.0507 6.14344 14.4565 5.60418 14.7609C5.06492 15.0652 4.46344 15.2174 3.79974 15.2174C2.7627 15.2174 1.88122 14.8623 1.1553 14.1522C0.429369 13.442 0.0664062 12.5797 0.0664062 11.5652C0.0664062 10.5507 0.429369 9.68841 1.1553 8.97826C1.88122 8.26812 2.7627 7.91304 3.79974 7.91304C4.83678 7.91304 5.71826 8.26812 6.44418 8.97826C7.17011 9.68841 7.53307 10.5507 7.53307 11.5652V11.8087L10.0531 12.6609C10.4679 11.9304 11.0229 11.3116 11.7181 10.8043C12.4125 10.2971 13.1953 9.97246 14.0664 9.83043V7.18261C13.2575 6.95942 12.5884 6.52806 12.0591 5.88852C11.5306 5.2498 11.2664 4.50435 11.2664 3.65217C11.2664 2.63768 11.6294 1.77536 12.3553 1.06522C13.0812 0.355072 13.9627 0 14.9997 0C16.0368 0 16.9183 0.355072 17.6442 1.06522C18.3701 1.77536 18.7331 2.63768 18.7331 3.65217C18.7331 4.50435 18.4634 5.2498 17.9242 5.88852C17.3849 6.52806 16.7212 6.95942 15.9331 7.18261V9.83043C16.8042 9.97246 17.5874 10.2971 18.2826 10.8043C18.977 11.3116 19.5316 11.9304 19.9464 12.6609L22.4664 11.8087V11.5652C22.4664 10.5507 22.8294 9.68841 23.5553 8.97826C24.2812 8.26812 25.1627 7.91304 26.1997 7.91304C27.2368 7.91304 28.1183 8.26812 28.8442 8.97826C29.5701 9.68841 29.9331 10.5507 29.9331 11.5652C29.9331 12.5797 29.5701 13.442 28.8442 14.1522C28.1183 14.8623 27.2368 15.2174 26.1997 15.2174C25.536 15.2174 24.9296 15.0652 24.3804 14.7609C23.8303 14.4565 23.3894 14.0507 23.0575 13.5435L20.5375 14.3652C20.662 15.1565 20.6101 15.9426 20.382 16.7233C20.1538 17.5049 19.7494 18.2203 19.1686 18.8696L20.942 21C21.1701 20.8986 21.4086 20.8223 21.6575 20.7711C21.9064 20.7208 22.176 20.6957 22.4664 20.6957C23.5034 20.6957 24.3849 21.0507 25.1108 21.7609C25.8368 22.471 26.1997 23.3333 26.1997 24.3478C26.1997 25.3623 25.8368 26.2246 25.1108 26.9348C24.3849 27.6449 23.5034 28 22.4664 28C21.4294 28 20.5479 27.6449 19.822 26.9348C19.096 26.2246 18.7331 25.3623 18.7331 24.3478C18.7331 23.942 18.8007 23.5517 18.9359 23.1767C19.0703 22.8009 19.2516 22.4609 19.4797 22.1565L17.7064 19.9957C16.856 20.4623 15.9488 20.6957 14.9848 20.6957C14.0199 20.6957 13.1123 20.4623 12.262 19.9957L10.5197 22.1565C10.7479 22.4609 10.9296 22.8009 11.0648 23.1767C11.1992 23.5517 11.2664 23.942 11.2664 24.3478C11.2664 25.3623 10.9034 26.2246 10.1775 26.9348C9.45159 27.6449 8.57011 28 7.53307 28ZM3.79974 12.7826C4.15233 12.7826 4.44809 12.6657 4.68703 12.432C4.92513 12.1991 5.04418 11.9101 5.04418 11.5652C5.04418 11.2203 4.92513 10.931 4.68703 10.6972C4.44809 10.4643 4.15233 10.3478 3.79974 10.3478C3.44715 10.3478 3.1518 10.4643 2.9137 10.6972C2.67476 10.931 2.55529 11.2203 2.55529 11.5652C2.55529 11.9101 2.67476 12.1991 2.9137 12.432C3.1518 12.6657 3.44715 12.7826 3.79974 12.7826ZM7.53307 25.5652C7.88566 25.5652 8.18143 25.4483 8.42036 25.2146C8.65846 24.9817 8.77752 24.6928 8.77752 24.3478C8.77752 24.0029 8.65846 23.714 8.42036 23.481C8.18143 23.2473 7.88566 23.1304 7.53307 23.1304C7.18048 23.1304 6.88472 23.2473 6.64578 23.481C6.40768 23.714 6.28863 24.0029 6.28863 24.3478C6.28863 24.6928 6.40768 24.9817 6.64578 25.2146C6.88472 25.4483 7.18048 25.5652 7.53307 25.5652ZM14.9997 4.86957C15.3523 4.86957 15.6481 4.7527 15.887 4.51896C16.1251 4.28603 16.2442 3.9971 16.2442 3.65217C16.2442 3.30725 16.1251 3.01791 15.887 2.78417C15.6481 2.55125 15.3523 2.43478 14.9997 2.43478C14.6471 2.43478 14.3518 2.55125 14.1137 2.78417C13.8748 3.01791 13.7553 3.30725 13.7553 3.65217C13.7553 3.9971 13.8748 4.28603 14.1137 4.51896C14.3518 4.7527 14.6471 4.86957 14.9997 4.86957ZM14.9997 18.2609C15.8708 18.2609 16.6071 17.9667 17.2086 17.3783C17.8101 16.7899 18.1108 16.0696 18.1108 15.2174C18.1108 14.3652 17.8101 13.6449 17.2086 13.0565C16.6071 12.4681 15.8708 12.1739 14.9997 12.1739C14.1286 12.1739 13.3923 12.4681 12.7909 13.0565C12.1894 13.6449 11.8886 14.3652 11.8886 15.2174C11.8886 16.0696 12.1894 16.7899 12.7909 17.3783C13.3923 17.9667 14.1286 18.2609 14.9997 18.2609ZM22.4664 25.5652C22.819 25.5652 23.1143 25.4483 23.3524 25.2146C23.5914 24.9817 23.7108 24.6928 23.7108 24.3478C23.7108 24.0029 23.5914 23.714 23.3524 23.481C23.1143 23.2473 22.819 23.1304 22.4664 23.1304C22.1138 23.1304 21.8185 23.2473 21.5804 23.481C21.3414 23.714 21.222 24.0029 21.222 24.3478C21.222 24.6928 21.3414 24.9817 21.5804 25.2146C21.8185 25.4483 22.1138 25.5652 22.4664 25.5652ZM26.1997 12.7826C26.5523 12.7826 26.8477 12.6657 27.0858 12.432C27.3247 12.1991 27.4442 11.9101 27.4442 11.5652C27.4442 11.2203 27.3247 10.931 27.0858 10.6972C26.8477 10.4643 26.5523 10.3478 26.1997 10.3478C25.8471 10.3478 25.5518 10.4643 25.3137 10.6972C25.0748 10.931 24.9553 11.2203 24.9553 11.5652C24.9553 11.9101 25.0748 12.1991 25.3137 12.432C25.5518 12.6657 25.8471 12.7826 26.1997 12.7826Z" fill="#58BFF5"/>
</svg>
