<svg width="30" height="28" viewBox="0 0 30 28" fill="none" xmlns="http://www.w3.org/2000/svg">
<path d="M7.53356 28C6.49652 28 5.61504 27.6449 4.88912 26.9348C4.16319 26.2246 3.80023 25.3623 3.80023 24.3478C3.80023 23.3333 4.16319 22.471 4.88912 21.7609C5.61504 21.0507 6.49652 20.6957 7.53356 20.6957C7.82393 20.6957 8.09356 20.7261 8.34245 20.787C8.59134 20.8478 8.82986 20.929 9.05801 21.0304L10.8313 18.8696C10.2506 18.2406 9.84615 17.5304 9.61801 16.7391C9.38986 15.9478 9.33801 15.1565 9.46245 14.3652L6.94245 13.5435C6.58986 14.0507 6.14393 14.4565 5.60467 14.7609C5.06541 15.0652 4.46393 15.2174 3.80023 15.2174C2.76319 15.2174 1.88171 14.8623 1.15578 14.1522C0.429857 13.442 0.0668945 12.5797 0.0668945 11.5652C0.0668945 10.5507 0.429857 9.68841 1.15578 8.97826C1.88171 8.26812 2.76319 7.91304 3.80023 7.91304C4.83726 7.91304 5.71875 8.26812 6.44467 8.97826C7.1706 9.68841 7.53356 10.5507 7.53356 11.5652V11.8087L10.0536 12.6609C10.4684 11.9304 11.0234 11.3116 11.7186 10.8043C12.413 10.2971 13.1958 9.97246 14.0669 9.83043V7.18261C13.258 6.95942 12.5889 6.52806 12.0596 5.88852C11.5311 5.2498 11.2669 4.50435 11.2669 3.65217C11.2669 2.63768 11.6299 1.77536 12.3558 1.06522C13.0817 0.355072 13.9632 0 15.0002 0C16.0373 0 16.9187 0.355072 17.6447 1.06522C18.3706 1.77536 18.7336 2.63768 18.7336 3.65217C18.7336 4.50435 18.4639 5.2498 17.9247 5.88852C17.3854 6.52806 16.7217 6.95942 15.9336 7.18261V9.83043C16.8047 9.97246 17.5878 10.2971 18.2831 10.8043C18.9775 11.3116 19.5321 11.9304 19.9469 12.6609L22.4669 11.8087V11.5652C22.4669 10.5507 22.8299 9.68841 23.5558 8.97826C24.2817 8.26812 25.1632 7.91304 26.2002 7.91304C27.2373 7.91304 28.1187 8.26812 28.8447 8.97826C29.5706 9.68841 29.9336 10.5507 29.9336 11.5652C29.9336 12.5797 29.5706 13.442 28.8447 14.1522C28.1187 14.8623 27.2373 15.2174 26.2002 15.2174C25.5365 15.2174 24.9301 15.0652 24.3808 14.7609C23.8308 14.4565 23.3899 14.0507 23.058 13.5435L20.538 14.3652C20.6624 15.1565 20.6106 15.9426 20.3825 16.7233C20.1543 17.5049 19.7499 18.2203 19.1691 18.8696L20.9424 21C21.1706 20.8986 21.4091 20.8223 21.658 20.7711C21.9069 20.7208 22.1765 20.6957 22.4669 20.6957C23.5039 20.6957 24.3854 21.0507 25.1113 21.7609C25.8373 22.471 26.2002 23.3333 26.2002 24.3478C26.2002 25.3623 25.8373 26.2246 25.1113 26.9348C24.3854 27.6449 23.5039 28 22.4669 28C21.4299 28 20.5484 27.6449 19.8224 26.9348C19.0965 26.2246 18.7336 25.3623 18.7336 24.3478C18.7336 23.942 18.8012 23.5517 18.9364 23.1767C19.0708 22.8009 19.2521 22.4609 19.4802 22.1565L17.7069 19.9957C16.8565 20.4623 15.9493 20.6957 14.9853 20.6957C14.0204 20.6957 13.1128 20.4623 12.2624 19.9957L10.5202 22.1565C10.7484 22.4609 10.9301 22.8009 11.0653 23.1767C11.1997 23.5517 11.2669 23.942 11.2669 24.3478C11.2669 25.3623 10.9039 26.2246 10.178 26.9348C9.45208 27.6449 8.5706 28 7.53356 28ZM3.80023 12.7826C4.15282 12.7826 4.44858 12.6657 4.68752 12.432C4.92562 12.1991 5.04467 11.9101 5.04467 11.5652C5.04467 11.2203 4.92562 10.931 4.68752 10.6972C4.44858 10.4643 4.15282 10.3478 3.80023 10.3478C3.44764 10.3478 3.15229 10.4643 2.91418 10.6972C2.67525 10.931 2.55578 11.2203 2.55578 11.5652C2.55578 11.9101 2.67525 12.1991 2.91418 12.432C3.15229 12.6657 3.44764 12.7826 3.80023 12.7826ZM7.53356 25.5652C7.88615 25.5652 8.18192 25.4483 8.42085 25.2146C8.65895 24.9817 8.77801 24.6928 8.77801 24.3478C8.77801 24.0029 8.65895 23.714 8.42085 23.481C8.18192 23.2473 7.88615 23.1304 7.53356 23.1304C7.18097 23.1304 6.88521 23.2473 6.64627 23.481C6.40817 23.714 6.28912 24.0029 6.28912 24.3478C6.28912 24.6928 6.40817 24.9817 6.64627 25.2146C6.88521 25.4483 7.18097 25.5652 7.53356 25.5652ZM15.0002 4.86957C15.3528 4.86957 15.6486 4.7527 15.8875 4.51896C16.1256 4.28603 16.2447 3.9971 16.2447 3.65217C16.2447 3.30725 16.1256 3.01791 15.8875 2.78417C15.6486 2.55125 15.3528 2.43478 15.0002 2.43478C14.6476 2.43478 14.3523 2.55125 14.1142 2.78417C13.8752 3.01791 13.7558 3.30725 13.7558 3.65217C13.7558 3.9971 13.8752 4.28603 14.1142 4.51896C14.3523 4.7527 14.6476 4.86957 15.0002 4.86957ZM15.0002 18.2609C15.8713 18.2609 16.6076 17.9667 17.2091 17.3783C17.8106 16.7899 18.1113 16.0696 18.1113 15.2174C18.1113 14.3652 17.8106 13.6449 17.2091 13.0565C16.6076 12.4681 15.8713 12.1739 15.0002 12.1739C14.1291 12.1739 13.3928 12.4681 12.7913 13.0565C12.1899 13.6449 11.8891 14.3652 11.8891 15.2174C11.8891 16.0696 12.1899 16.7899 12.7913 17.3783C13.3928 17.9667 14.1291 18.2609 15.0002 18.2609ZM22.4669 25.5652C22.8195 25.5652 23.1148 25.4483 23.3529 25.2146C23.5919 24.9817 23.7113 24.6928 23.7113 24.3478C23.7113 24.0029 23.5919 23.714 23.3529 23.481C23.1148 23.2473 22.8195 23.1304 22.4669 23.1304C22.1143 23.1304 21.819 23.2473 21.5808 23.481C21.3419 23.714 21.2224 24.0029 21.2224 24.3478C21.2224 24.6928 21.3419 24.9817 21.5808 25.2146C21.819 25.4483 22.1143 25.5652 22.4669 25.5652ZM26.2002 12.7826C26.5528 12.7826 26.8482 12.6657 27.0863 12.432C27.3252 12.1991 27.4447 11.9101 27.4447 11.5652C27.4447 11.2203 27.3252 10.931 27.0863 10.6972C26.8482 10.4643 26.5528 10.3478 26.2002 10.3478C25.8476 10.3478 25.5523 10.4643 25.3142 10.6972C25.0752 10.931 24.9558 11.2203 24.9558 11.5652C24.9558 11.9101 25.0752 12.1991 25.3142 12.432C25.5523 12.6657 25.8476 12.7826 26.2002 12.7826Z" fill="#666666"/>
</svg>
