<svg width="40" height="40" viewBox="0 0 40 40" fill="none" xmlns="http://www.w3.org/2000/svg">
<path d="M32.75 15.0667L24.6833 14.3667L21.5333 6.95C20.9667 5.6 19.0333 5.6 18.4667 6.95L15.3167 14.3833L7.26667 15.0667C5.8 15.1833 5.2 17.0167 6.31667 17.9833L12.4333 23.2833L10.6 31.15C10.2667 32.5833 11.8167 33.7167 13.0833 32.95L20 28.7833L26.9167 32.9667C28.1833 33.7333 29.7333 32.6 29.4 31.1667L27.5667 23.2833L33.6833 17.9833C34.8 17.0167 34.2167 15.1833 32.75 15.0667ZM20.2068 25.7917C20.0796 25.7148 19.9203 25.7148 19.7931 25.7916L14.5454 28.9597C14.2424 29.1427 13.8686 28.8709 13.9492 28.5263L15.3451 22.5517C15.3789 22.4071 15.3298 22.2558 15.2177 22.1585L10.5802 18.1357C10.3133 17.9041 10.4558 17.4656 10.8078 17.435L16.9264 16.9042C17.0742 16.8914 17.2027 16.7978 17.2604 16.6611L19.6321 11.0389C19.7695 10.713 20.2311 10.7128 20.369 11.0384L22.7561 16.6782C22.8139 16.8147 22.9423 16.908 23.0899 16.9208L29.2089 17.4517C29.5609 17.4822 29.7033 17.9208 29.4364 18.1523L24.799 22.1752C24.6868 22.2725 24.6378 22.4238 24.6716 22.5683L26.0673 28.542C26.1478 28.8867 25.7737 29.1585 25.4708 28.9753L20.2068 25.7917Z" fill="#666666"/>
</svg>
