<svg width="18" height="18" viewBox="0 0 18 18" fill="none" xmlns="http://www.w3.org/2000/svg">
<path d="M9.00008 13.5834C9.4723 13.5834 9.91675 13.4965 10.3334 13.3229C10.7501 13.1493 11.139 12.9028 11.5001 12.5834C11.6251 12.4722 11.6876 12.3264 11.6876 12.1459C11.6876 11.9653 11.6251 11.8195 11.5001 11.7084C11.3751 11.5972 11.2258 11.5417 11.0522 11.5417C10.8786 11.5417 10.7223 11.5972 10.5834 11.7084C10.3473 11.8889 10.0973 12.0347 9.83341 12.1459C9.56953 12.257 9.29175 12.3125 9.00008 12.3125C8.70841 12.3125 8.43064 12.257 8.16675 12.1459C7.90286 12.0347 7.65286 11.8889 7.41675 11.7084C7.27786 11.5972 7.12161 11.5417 6.948 11.5417C6.77439 11.5417 6.62508 11.5972 6.50008 11.7084C6.37508 11.8195 6.31258 11.9653 6.31258 12.1459C6.31258 12.3264 6.37508 12.4722 6.50008 12.5834C6.86119 12.8889 7.25008 13.132 7.66675 13.3125C8.08341 13.4931 8.52786 13.5834 9.00008 13.5834ZM9.00008 17.3334C7.8473 17.3334 6.76397 17.1146 5.75008 16.6771C4.73619 16.2396 3.85425 15.6459 3.10425 14.8959C2.35425 14.1459 1.7605 13.2639 1.323 12.25C0.885498 11.2361 0.666748 10.1528 0.666748 9.00002C0.666748 7.84724 0.885498 6.76391 1.323 5.75002C1.7605 4.73613 2.35425 3.85419 3.10425 3.10419C3.85425 2.35419 4.73619 1.76044 5.75008 1.32294C6.76397 0.885437 7.8473 0.666687 9.00008 0.666687C10.1529 0.666687 11.2362 0.885437 12.2501 1.32294C13.264 1.76044 14.1459 2.35419 14.8959 3.10419C15.6459 3.85419 16.2397 4.73613 16.6772 5.75002C17.1147 6.76391 17.3334 7.84724 17.3334 9.00002C17.3334 10.1528 17.1147 11.2361 16.6772 12.25C16.2397 13.2639 15.6459 14.1459 14.8959 14.8959C14.1459 15.6459 13.264 16.2396 12.2501 16.6771C11.2362 17.1146 10.1529 17.3334 9.00008 17.3334ZM9.00008 15.6667C10.8612 15.6667 12.4376 15.0209 13.7292 13.7292C15.0209 12.4375 15.6667 10.8611 15.6667 9.00002C15.6667 7.13891 15.0209 5.56252 13.7292 4.27085C12.4376 2.97919 10.8612 2.33335 9.00008 2.33335C7.13897 2.33335 5.56258 2.97919 4.27091 4.27085C2.97925 5.56252 2.33341 7.13891 2.33341 9.00002C2.33341 10.8611 2.97925 12.4375 4.27091 13.7292C5.56258 15.0209 7.13897 15.6667 9.00008 15.6667ZM6.08341 9.00002C6.52786 9.00002 6.92716 8.86113 7.28133 8.58335C7.6355 8.30558 7.9098 7.9653 8.10425 7.56252C8.17369 7.38196 8.17716 7.20488 8.11466 7.03127C8.05216 6.85766 7.93064 6.75002 7.75008 6.70835C7.5973 6.66669 7.44453 6.68405 7.29175 6.76044C7.13897 6.83683 7.02786 6.95141 6.95841 7.10419C6.86119 7.28474 6.73966 7.43752 6.59383 7.56252C6.448 7.68752 6.27786 7.75002 6.08341 7.75002C5.88897 7.75002 5.71536 7.68405 5.56258 7.5521C5.4098 7.42016 5.29175 7.26391 5.20841 7.08335C5.13897 6.93058 5.02786 6.81946 4.87508 6.75002C4.7223 6.68058 4.56953 6.66669 4.41675 6.70835C4.23619 6.75002 4.11466 6.85766 4.05216 7.03127C3.98966 7.20488 4.00008 7.38196 4.08341 7.56252C4.25008 7.97919 4.51397 8.32294 4.87508 8.59377C5.23619 8.8646 5.63897 9.00002 6.08341 9.00002ZM11.9167 9.00002C12.3612 9.00002 12.7605 8.86113 13.1147 8.58335C13.4688 8.30558 13.7431 7.9653 13.9376 7.56252C14.007 7.38196 14.0105 7.20488 13.948 7.03127C13.8855 6.85766 13.764 6.75002 13.5834 6.70835C13.4306 6.66669 13.2779 6.68405 13.1251 6.76044C12.9723 6.83683 12.8612 6.95141 12.7917 7.10419C12.6945 7.28474 12.573 7.43752 12.4272 7.56252C12.2813 7.68752 12.1112 7.75002 11.9167 7.75002C11.7223 7.75002 11.5487 7.68405 11.3959 7.5521C11.2431 7.42016 11.1251 7.26391 11.0417 7.08335C10.9723 6.93058 10.8612 6.81946 10.7084 6.75002C10.5556 6.68058 10.4029 6.66669 10.2501 6.70835C10.0695 6.75002 9.948 6.85766 9.8855 7.03127C9.823 7.20488 9.83341 7.38196 9.91675 7.56252C10.0834 7.97919 10.3473 8.32294 10.7084 8.59377C11.0695 8.8646 11.4723 9.00002 11.9167 9.00002Z" fill="#58BFF5"/>
</svg>
