<svg width="28" height="30" viewBox="0 0 28 30" fill="none" xmlns="http://www.w3.org/2000/svg">
<path d="M5.66699 30C4.75033 30 3.96588 29.6739 3.31366 29.0217C2.66033 28.3683 2.33366 27.5833 2.33366 26.6667V5C1.86144 5 1.46533 4.84056 1.14533 4.52167C0.826437 4.20167 0.666992 3.80556 0.666992 3.33333C0.666992 2.86111 0.826437 2.465 1.14533 2.145C1.46533 1.82611 1.86144 1.66667 2.33366 1.66667H9.00033C9.00033 1.19444 9.16033 0.798333 9.48033 0.478333C9.79921 0.159444 10.1948 0 10.667 0H17.3337C17.8059 0 18.202 0.159444 18.522 0.478333C18.8409 0.798333 19.0003 1.19444 19.0003 1.66667H25.667C26.1392 1.66667 26.5348 1.82611 26.8537 2.145C27.1737 2.465 27.3337 2.86111 27.3337 3.33333C27.3337 3.80556 27.1737 4.20167 26.8537 4.52167C26.5348 4.84056 26.1392 5 25.667 5V26.6667C25.667 27.5833 25.3409 28.3683 24.6887 29.0217C24.0353 29.6739 23.2503 30 22.3337 30H5.66699ZM5.66699 5V26.6667H22.3337V5H5.66699ZM9.00033 21.6667C9.00033 22.1389 9.16033 22.5344 9.48033 22.8533C9.79921 23.1733 10.1948 23.3333 10.667 23.3333C11.1392 23.3333 11.5353 23.1733 11.8553 22.8533C12.1742 22.5344 12.3337 22.1389 12.3337 21.6667V10C12.3337 9.52778 12.1742 9.13167 11.8553 8.81167C11.5353 8.49278 11.1392 8.33333 10.667 8.33333C10.1948 8.33333 9.79921 8.49278 9.48033 8.81167C9.16033 9.13167 9.00033 9.52778 9.00033 10V21.6667ZM15.667 21.6667C15.667 22.1389 15.827 22.5344 16.147 22.8533C16.4659 23.1733 16.8614 23.3333 17.3337 23.3333C17.8059 23.3333 18.202 23.1733 18.522 22.8533C18.8409 22.5344 19.0003 22.1389 19.0003 21.6667V10C19.0003 9.52778 18.8409 9.13167 18.522 8.81167C18.202 8.49278 17.8059 8.33333 17.3337 8.33333C16.8614 8.33333 16.4659 8.49278 16.147 8.81167C15.827 9.13167 15.667 9.52778 15.667 10V21.6667Z" fill="#666666"/>
</svg>
